<svg id="Calque_1" data-name="Calque 1" xmlns="http://www.w3.org/2000/svg" viewBox="0 0 402.03 137.68"><defs><style>.cls-1{fill:#010101;}.cls-2{fill:#e09304;}</style></defs><path class="cls-1" d="M89.13,388.76a2,2,0,0,0,.85.07l12.34.11,31,.31c.91,0,.87-.08.86.87l-.06,6.89c0,.21,0,.42,0,.64a.19.19,0,0,0,.21.19h.55l9.91-.64,10.07-.64c2.51-.16,5-.31,7.51-.49,1.13-.08.91.05,1-1,.11-1.62.16-3.25.23-4.88,0-.24,0-.48,0-.72,0-.41,0-.44.48-.43l4.72.22,4.24.24,8,.38c3.63.18,7.26.38,10.88.57l3.6.18c2.69.13,5.39.25,8.08.39l9.52.48,4.23.23.4,0c.46,0,.48,0,.46-.42s0-1-.07-1.52c0-.1,0-.21,0-.32,0-.4,0-.42.36-.44l2.32-.12c3.17-.13,6.35-.25,9.52-.39l11.36-.49,11-.47,11.28-.49,11-.47,11.36-.49,10.88-.47,1.84-.1a.26.26,0,0,1,.3.28l.12,1.68c.13,2.32.25,4.64.38,7,.06,1.06.12,2.13.19,3.19,0,.37.09.43.43.42l7.12-.29c1.49-.07,3-.15,4.48-.21,3.17-.13,6.35-.25,9.52-.39l9.12-.4,5.28-.22,3.12-.14c.29,0,.33-.05.36-.32a3.56,3.56,0,0,0,.05-.47l.54-7.91c.06-.86.06-.86.91-.8l8.22.55,9.35.64,9.11.64,10.22.73,5.83.38c2.64.19,5.27.39,7.91.57l5.67.38,5.75.41,2.72.19,9,.63,2.16.15c.33,0,.35.05.32.41-.06,1.06-.13,2.13-.21,3.19s-.16,2.08-.24,3.12l-.54,8c-.22,3-.43,6.07-.65,9.1l-.63,9c-.24,3.32-.49,6.65-.73,10-.14,1.91-.25,3.83-.39,5.75-.18,2.58-.38,5.16-.57,7.74-.13,1.87-.25,3.73-.38,5.6s-.27,3.72-.41,5.59-.24,3.51-.37,5.27c-.14,2-.29,4-.43,6.07-.13,1.81-.25,3.62-.38,5.43l-.42,5.83c-.13,1.76-.25,3.51-.37,5.27-.14,2-.29,4.05-.43,6.07-.13,1.81-.25,3.62-.38,5.43l-.42,5.83c-.07.93-.14,1.86-.2,2.8-.18,2.58-.35,5.16-.53,7.74a3.11,3.11,0,0,1,0,.32.23.23,0,0,1-.21.21h-.31l-10-.72-5.75-.38-5.67-.41L381,514l-6-.43-2.72-.19-9-.63-5.84-.38-7.9-.57-5.68-.38L338.1,511l-3-.21-3.2-.2-.24,0c-.27,0-.33-.1-.33-.35s0-.26,0-.4c.13-1.81.27-3.62.4-5.43.08-1,.16-.89-.84-.85-3.23.13-6.46.25-9.68.39l-11.44.49-3,.13c-.55,0-.56,0-.53.54.07,1.14.14,2.29.22,3.43,0,.14,0,.27,0,.4,0,.4,0,.42-.37.45l-1.35.08-5.29.22-9.44.42-4.08.17-9.52.39-11.44.5-10.8.46-10,.45h-.24a.25.25,0,0,0-.24.26c0,.14,0,.27,0,.4l-.18,3.6a1.59,1.59,0,0,1-.13.8l-.31,0-7.2-.38-3.44-.18-8-.38-7.68-.41-3.44-.17-8.08-.39c-3.6-.18-7.2-.38-10.79-.57-1.5-.07-3-.13-4.48-.21l-8.08-.42-3.52-.18c-2.69-.13-5.39-.25-8.08-.39l-10.79-.56-1.44-.06c-.21,0-.29-.1-.28-.3,0-1,.08-2,.13-3,.06-1.31.13-2.62.2-3.92,0-.33,0-.39-.36-.37l-5.44.36-3,.2-6.24.38-9.42.61c-.37,0-.38,0-.38.45,0,1.63,0,3.26-.06,4.89,0,.35.18.81-.14,1s-.67.06-1,.05L105.15,513l-30.27-.31c-2.62,0-5.23-.06-7.85-.1h-.4c-.15,0-.25-.08-.25-.25s0-.42,0-.64q0-3.17.07-6.33c0-.21,0-.42,0-.63a.17.17,0,0,0-.16-.16H65.8l-5,.21-4.72.22-5.53.22-9.28.41-4.08.18-9.6.38-6.32.29c-.88,0-.78.09-.81-.73-.17-3.81-.33-7.63-.5-11.44-.16-3.6-.31-7.2-.47-10.8-.16-3.79-.33-7.57-.49-11.36-.16-3.57-.31-7.15-.47-10.72-.16-3.79-.33-7.58-.49-11.36l-.48-10.88L17.12,428l-.48-10.88q-.24-5.64-.49-11.29-.22-5.31-.46-10.64-.27-6-.53-12.08s0-.1,0-.16.06-.29.27-.31l1.44-.08,5.44-.22,9.44-.42,4.16-.18,9.52-.38,11.68-.5L68,380.38l11.69-.5,8.48-.38a1.07,1.07,0,0,1,.31,0,.18.18,0,0,1,.17.15,1.81,1.81,0,0,1,0,.23c0,.54.07,1.07.09,1.6l.3,6.8A.91.91,0,0,0,89.13,388.76ZM234.26,477c.06.24.08.3.09.37.11,1.86.23,3.73.33,5.59.08,1.39.15,2.77.22,4.16,0,1,.11,2,.17,3l.42,6.86c.07,1.26.13,2.51.2,3.76,0,.11,0,.21,0,.32a.27.27,0,0,0,.32.27l1.36-.08,7.43-.32,7.36-.32,7.84-.33,7-.31,7.68-.32,7.2-.32,7.67-.32,4.72-.2c.38,0,.42-.05.41-.43,0-.88-.1-1.75-.14-2.63,0-.48,0-1-.07-1.44a.27.27,0,0,1,.28-.31h.16l5.68-.26c2.61-.12,5.22-.22,7.84-.33l7.11-.31,7.76-.33,7.28-.32,7.75-.32c1.15-.05,2.3,0,3.44-.15.56-.05,1.12,0,1.68-.05.22,0,.29.07.28.28-.12,1.57-.23,3.14-.34,4.71-.07,1-.14,2-.2,3,0,.32,0,.38.34.4.85.07,1.71.12,2.56.18l5.58.42,5.83.38,2.48.17,6.31.44,2.87.2,5.59.41,5.83.38L383,503l5.51.41,3.51.22,3.12.24,2.63.18a.27.27,0,0,0,.33-.26c0-.26.07-.52.09-.79l.48-6.71c.16-2.28.33-4.57.49-6.86.13-1.92.25-3.83.38-5.75l.18-2.56c.14-1.94.29-3.88.43-5.82.07-1,.13-2.08.2-3.12.19-2.58.39-5.16.58-7.74.13-1.89.25-3.78.38-5.67.05-.82.11-1.65.17-2.47.13-1.84.28-3.67.41-5.51.09-1.14.14-2.29.22-3.43.19-2.58.39-5.16.58-7.74.13-1.89.25-3.78.38-5.67,0-.86.11-1.71.17-2.56.14-1.86.29-3.72.42-5.59.08-1.11.14-2.23.22-3.35.18-2.55.38-5.11.57-7.66.13-1.89.24-3.78.38-5.67.07-1,.16-2,.24-3s.13-1.86.19-2.8c0-.16,0-.32,0-.48s-.11-.28-.29-.3l-2.08-.15-3.35-.21-5.51-.41-5.83-.38-2.55-.18-6-.43-3.2-.2c-2.6-.19-5.21-.39-7.82-.57-1.94-.14-3.88-.26-5.83-.38l-2.55-.18-6.23-.44c-1.06-.08-2.13-.13-3.19-.23-.43,0-.53,0-.56.42-.08,1.07-.18,2.13-.25,3.19l-.39,5.75c-.05.83-.11,1.65-.17,2.48-.15,2.07-.29,4.15-.45,6.22,0,.46-.08.91-.11,1.36s-.06.85-.09,1.27c-.12-.91-.19-1.81-.22-2.72-.08-2.59-.15-5.17-.22-7.76,0-.43,0-.85,0-1.28s-.09-.52-.53-.5-1.06.07-1.6.09l-7.83.33-7.2.31-7.76.33-7.27.32-7.6.32-7.44.32-8,.33-2.33.08-.79.06c-.37,0-.55,0-.55-.46s0-.86-.05-1.28q-.22-3.72-.44-7.43c-.06-1-.11-2-.17-3,0-.35-.1-.42-.44-.4l-8.23.37-7.12.31-7.6.33-7.27.31-7.6.33-7.2.31c-2.58.12-5.17.22-7.75.33l-5.28.21c-.44,0-.48.06-.47.45,0,.7.08,1.39.12,2.08,0,.35,0,.69,0,1,0,.16-.1.24-.25.25h-.64l-4.39-.25-6.8-.34-5.91-.3-6.8-.34-5.91-.3-6.64-.34-6.15-.31-6.48-.32-4.95-.23c-.22,0-.43,0-.64,0a.26.26,0,0,0-.28.23c0,.11,0,.21,0,.32-.06,1.47-.12,2.93-.19,4.4,0,.13,0,.26,0,.4,0,.34-.08.39-.45.42l-2.55.17-6.39.38c-.91.06-1.82.11-2.72.18-2,.13-4,.28-6,.4l-6.39.39-2.64.17-6.14.41c-1.25.09-2.51.15-3.76.22l-2.63.17-6.23.42c-1.44.09-2.88.2-4.31.28-.85.05-.86.15-.84-.76l.09-7.69c0-.24,0-.48,0-.72a.2.2,0,0,0-.19-.21,2.69,2.69,0,0,0-.4,0l-9.61-.11-9.13-.07c-3.63,0-7.26-.08-10.89-.12l-12.65-.14c-.43,0-.86,0-1.28,0s-.42-.05-.44-.41c-.06-1.14-.11-2.29-.16-3.44-.06-1.49-.12-3-.19-4.48,0-.34-.05-.37-.37-.37s-.48,0-.72,0l-7,.31-7.51.32-7.44.32-7.6.32-7.43.32-8,.33-4.56.18-.32,0c-.19,0-.3.1-.3.29a2.64,2.64,0,0,0,0,.4c0,1,.08,1.92.13,2.88.1,2.53.21,5.07.32,7.6s.21,4.8.32,7.2.21,4.95.32,7.43.21,4.91.32,7.36.21,4.9.32,7.36.21,4.9.32,7.35.21,5,.32,7.44.21,4.85.32,7.28.21,5,.32,7.51.22,4.8.32,7.2l.33,7.6c.1,2.37.21,4.74.31,7.11.12,2.72.23,5.44.35,8.16,0,.4,0,.8,0,1.2,0,.25.09.33.35.32.58,0,1.17-.07,1.76-.1l7.43-.31,7.6-.33,7.36-.31,7.67-.33,6.08-.23,7.44-.31.48,0c.26,0,.34.08.35.32a1.92,1.92,0,0,1,0,.24c0,2.43,0,4.86-.07,7.29,0,.16,0,.32,0,.48s.13.28.31.3h.48l5.12,0,13.14.13,4.08,0,10.65.12L121,502h.72c.39,0,.44,0,.45-.48,0-.66,0-1.33,0-2,0-1.47,0-2.94.09-4.4,0,.31.07.63.09.94a.27.27,0,0,0,.32.28l.64,0,1.51-.11,6.47-.43,6.23-.38c1.09-.06,2.19-.12,3.28-.2l6.07-.41,3.75-.22,2.72-.17,6.15-.41,3.67-.22c1.12-.07,2.24-.16,3.35-.24l2.8-.17c.33,0,.4.06.39.34l-.27,5.75c0,.4-.06.8-.08,1.2s0,.91,0,1.36c0,.2.09.29.29.3h.24l4.87.28,5.91.3,6.72.33,6.07.31,6.48.33,6.23.31,6.56.33,6.07.31,6.64.33,4.79.22.88.06q.72,0,1.44.06c.25,0,.32-.06.34-.33s0-.27,0-.4l.3-6.32c.12-2.34.23-4.69.34-7,.08-1.87.15-3.74.24-5.6s.18-3.89.28-5.84C234.12,479.05,234.19,478.12,234.26,477Z" transform="translate(-15.14 -379.49)"/><path class="cls-2" d="M234.26,477c-.07,1.1-.14,2-.19,3-.1,1.95-.19,3.89-.28,5.84s-.16,3.73-.24,5.6c-.11,2.34-.22,4.69-.34,7l-.3,6.32c0,.13,0,.27,0,.4s-.09.34-.34.33q-.72,0-1.44-.06l-.88-.06-4.79-.22-6.64-.33-6.07-.31-6.56-.33-6.23-.31-6.48-.33-6.07-.31-6.72-.33-5.91-.3-4.87-.28h-.24c-.2,0-.3-.1-.29-.3,0-.45,0-.91,0-1.36s.06-.8.08-1.2l.27-5.75c0-.28-.06-.36-.39-.34l-2.8.17c-1.11.08-2.23.17-3.35.24l-3.67.22-6.15.41-2.72.17-3.75.22-6.07.41c-1.09.08-2.19.14-3.28.2l-6.23.38-6.47.43-1.51.11-.64,0a.27.27,0,0,1-.32-.28c0-.31,0-.63-.09-.94-.12,1.46-.08,2.93-.09,4.4,0,.67,0,1.34,0,2,0,.43-.06.47-.45.48H121l-9.69-.07-10.65-.12-4.08,0-13.14-.13-5.12,0h-.48c-.18,0-.3-.1-.31-.3s0-.32,0-.48c0-2.43.05-4.86.07-7.29a1.92,1.92,0,0,0,0-.24c0-.24-.09-.31-.35-.32l-.48,0-7.44.31-6.08.23-7.67.33-7.36.31-7.6.33-7.43.31c-.59,0-1.18.08-1.76.1-.26,0-.34-.07-.35-.32,0-.4,0-.8,0-1.2-.12-2.72-.23-5.44-.35-8.16-.1-2.37-.21-4.74-.31-7.11l-.33-7.6q-.15-3.6-.32-7.2c-.11-2.5-.21-5-.32-7.51s-.21-4.86-.32-7.28-.21-5-.32-7.44-.21-4.9-.32-7.35-.21-4.91-.32-7.36-.21-4.91-.32-7.36-.21-5-.32-7.43-.22-4.8-.32-7.2-.22-5.07-.32-7.6c-.05-1-.09-1.92-.13-2.88a2.64,2.64,0,0,1,0-.4c0-.19.11-.28.3-.29l.32,0,4.56-.18,8-.33,7.43-.32,7.6-.32,7.44-.32,7.51-.32,7-.31c.24,0,.48,0,.72,0s.35,0,.37.37c.07,1.5.13,3,.19,4.48,0,1.15.1,2.3.16,3.44,0,.36.07.4.44.41s.85,0,1.28,0l12.65.14c3.63,0,7.26.09,10.89.12l9.13.07,9.61.11a2.69,2.69,0,0,1,.4,0,.2.2,0,0,1,.19.21c0,.24,0,.48,0,.72l-.09,7.69c0,.91,0,.81.84.76,1.43-.08,2.87-.19,4.31-.28l6.23-.42,2.63-.17c1.25-.07,2.51-.13,3.76-.22l6.14-.41,2.64-.17,6.39-.39c2-.12,4-.27,6-.4.9-.07,1.81-.12,2.72-.18l6.39-.38,2.55-.17c.37,0,.41-.08.45-.42,0-.14,0-.27,0-.4.07-1.47.13-2.93.19-4.4,0-.11,0-.21,0-.32a.26.26,0,0,1,.28-.23c.21,0,.42,0,.64,0l4.95.23,6.48.32,6.15.31,6.64.34,5.91.3,6.8.34,5.91.3,6.8.34,4.39.25h.64c.15,0,.26-.09.25-.25,0-.35,0-.69,0-1,0-.69-.09-1.38-.12-2.08,0-.39,0-.43.47-.45l5.28-.21c2.58-.11,5.17-.21,7.75-.33l7.2-.31,7.6-.33,7.27-.31,7.6-.33,7.12-.31,8.23-.37c.34,0,.42.05.44.4.06,1,.11,2,.17,3q.21,3.71.44,7.43c0,.42.05.85.05,1.28s.18.48.55.46l.79-.06,2.33-.08,8-.33,7.44-.32,7.6-.32,7.27-.32,7.76-.33,7.2-.31,7.83-.33c.54,0,1.07-.07,1.6-.09s.5.05.53.5,0,.85,0,1.28c.07,2.59.14,5.17.22,7.76,0,.91.1,1.81.22,2.72,0-.42.05-.85.09-1.27s.08-.9.11-1.36c.16-2.07.3-4.15.45-6.22.06-.83.12-1.65.17-2.48l.39-5.75c.07-1.06.17-2.12.25-3.19,0-.4.13-.46.56-.42,1.06.1,2.13.15,3.19.23l6.23.44,2.55.18c1.95.12,3.89.24,5.83.38,2.61.18,5.22.38,7.82.57l3.2.2,6,.43,2.55.18,5.83.38,5.51.41,3.35.21,2.08.15c.18,0,.3.11.29.3s0,.32,0,.48c-.06.94-.13,1.87-.19,2.8s-.17,2-.24,3c-.14,1.89-.25,3.78-.38,5.67-.19,2.55-.39,5.11-.57,7.66-.08,1.12-.14,2.24-.22,3.35-.13,1.87-.28,3.73-.42,5.59-.06.85-.12,1.7-.17,2.56-.13,1.89-.25,3.78-.38,5.67-.19,2.58-.39,5.16-.58,7.74-.08,1.14-.13,2.29-.22,3.43-.13,1.84-.28,3.67-.41,5.51-.06.82-.12,1.65-.17,2.47-.13,1.89-.25,3.78-.38,5.67-.19,2.58-.39,5.16-.58,7.74-.07,1-.13,2.08-.2,3.12-.14,1.94-.29,3.88-.43,5.82l-.18,2.56c-.13,1.92-.25,3.83-.38,5.75-.16,2.29-.33,4.58-.49,6.86l-.48,6.71c0,.27-.06.53-.09.79a.27.27,0,0,1-.33.26l-2.63-.18-3.12-.24-3.51-.22L383,503l-2.47-.17-5.83-.38-5.59-.41-2.87-.2L360,501.4l-2.48-.17-5.83-.38-5.58-.42c-.85-.06-1.71-.11-2.56-.18-.31,0-.36-.08-.34-.4.06-1,.13-2,.2-3,.11-1.57.22-3.14.34-4.71,0-.21-.06-.29-.28-.28-.56,0-1.12,0-1.68.05-1.14.11-2.29.1-3.44.15l-7.75.32-7.28.32-7.76.33-7.11.31c-2.62.11-5.23.21-7.84.33l-5.68.26h-.16a.27.27,0,0,0-.28.31c0,.48,0,1,.07,1.44,0,.88.1,1.75.14,2.63,0,.38,0,.42-.41.43l-4.72.2-7.67.32-7.2.32L267,500l-7,.31-7.84.33-7.36.32-7.43.32-1.36.08a.27.27,0,0,1-.32-.27c0-.11,0-.21,0-.32-.07-1.25-.13-2.5-.2-3.76l-.42-6.86c-.06-1-.12-2-.17-3-.07-1.39-.14-2.77-.22-4.16-.1-1.86-.22-3.73-.33-5.59C234.34,477.32,234.32,477.26,234.26,477ZM54.86,404.1a.6.6,0,0,1,0-.47,13.9,13.9,0,0,1,.34-2.13,2.25,2.25,0,0,0,.11-.62,1,1,0,0,0-.76-1,1.83,1.83,0,0,0-.87,0,15.62,15.62,0,0,0-4.06,1.18l-1.4.59a8.2,8.2,0,0,1-2.23.61,4.5,4.5,0,0,1-1.27,0c-.14,0-.32,0-.33.14-.05.55-.38.67-.87.67a.83.83,0,0,0-.41.22,6.23,6.23,0,0,0-.62.51,3.7,3.7,0,0,0-.95,4.38l.18.44a.18.18,0,0,1-.12.25c-.1,0-.21,0-.31.08a8.8,8.8,0,0,0-5,3.16,5,5,0,0,0-1,2.26.39.39,0,0,0,.45.5,5.09,5.09,0,0,0,.77-.19l4.64-1.53.53-.17c.2-.06.33,0,.38.17s.16.57.21.85.1.8.15,1.2l1,8.26q.51,4.33,1,8.66t1,8.66a1.68,1.68,0,0,1-.69,1.75c-.37.27-.71.56-1.06.85a4.47,4.47,0,0,0-1.42,2.71c-.07.39.16.61.56.58a7.2,7.2,0,0,0,.78-.16c.78-.17,1.56-.35,2.35-.51.24-.06.33,0,.4.25a2,2,0,0,1,.06.23c.88,3.71,1.7,7.44,2.43,11.18.51,2.59,1,5.19,1.38,7.8.3,2,.58,4,.82,6s.4,3.82.56,5.74c.21,2.55.3,5.11.38,7.67,0,1.17,0,2.35,0,3.52,0,.14,0,.27,0,.4a.26.26,0,0,0,.37.18,1.51,1.51,0,0,0,.26-.18c.27-.22.54-.44.8-.67s.48-.44.84-.21c.83,0,1.65.08,2.48.1a3,3,0,0,0,1.17-.24,38.48,38.48,0,0,0,4.74-2.32,4,4,0,0,0,1-.78,2.47,2.47,0,0,0,.72-1.81c0-.67-.06-1.34-.11-2a11.14,11.14,0,0,1,0-2q0-.48.06-1a53.91,53.91,0,0,0-.12-6.48c-.16-1.88-.37-3.77-.62-5.64-.18-1.35-.35-2.7-.53-4-.24-1.77-.47-3.54-.72-5.31s-.48-3.38-.72-5.07L61,446.2c-.13-.92-.28-1.84-.38-2.77-.08-.72.08-.95.73-1.25.46-.21.94-.38,1.41-.58A25.79,25.79,0,0,0,72,435.22a17.2,17.2,0,0,0,4.71-10.86,15.13,15.13,0,0,0-2-8.62,18.65,18.65,0,0,0-4.39-5.14,20.09,20.09,0,0,0-11.08-4.75c-.43-.05-.85-.07-1.27-.14s-1-.23-1.16-.82a1,1,0,0,0-.15-.29,1.08,1.08,0,0,0-1.21-.58A1.3,1.3,0,0,1,54.86,404.1ZM298.2,483.86a.68.68,0,0,0,.46-.09l1.28-.47a.62.62,0,0,1,.46-.06,6.41,6.41,0,0,0,1.74.24,12.15,12.15,0,0,0,3.51-.17,42.37,42.37,0,0,0,4.7-1.28c.23-.07.45-.17.68-.25a2.08,2.08,0,0,0,1.35-1.56,5.83,5.83,0,0,0,.17-1,8.77,8.77,0,0,1,.35-2,24.69,24.69,0,0,0,.93-6.16c.08-2.56,0-5.12,0-7.68,0-1.23,0-2.46-.08-3.68,0-.31-.12-.63.05-.93.39,0,.6.3.83.53,2.2,2.22,4.43,4.41,6.58,6.67,2.75,2.87,5.46,5.79,8.16,8.71a58.4,58.4,0,0,1,5.53,6.43,1.89,1.89,0,0,0,.25.31,1,1,0,0,0,1,.27,8.59,8.59,0,0,0,1.76-.76,1.82,1.82,0,0,0,.38-.29.8.8,0,0,0,.21-1.14,2.88,2.88,0,0,0-.3-.47c-.29-.38-.6-.75-.88-1.14a113.61,113.61,0,0,0-9.16-10.8c-3.72-3.91-7.42-7.83-11.21-11.67a1.71,1.71,0,0,1-.52-.61,1.24,1.24,0,0,1,.18-.14l5-2.49a38.31,38.31,0,0,0,6-3.57,20.08,20.08,0,0,0,4.12-4A12,12,0,0,0,334,434.55a10.82,10.82,0,0,0-3-5.39,21.3,21.3,0,0,0-6.53-4.54,27.24,27.24,0,0,0-7-2.11c-.6-.1-1.21-.18-1.81-.29a.91.91,0,0,1-.83-.65,1.08,1.08,0,0,0-1.23-.79l-.56,0c-.17,0-.27-.09-.22-.23a6.17,6.17,0,0,1,.19-.61c.18-.5.37-1,.54-1.51a.55.55,0,0,0-.34-.78,2.09,2.09,0,0,0-.85-.21,8,8,0,0,0-1.83,0l-5,.82a5.7,5.7,0,0,1-2.14.08,6.9,6.9,0,0,0-1.12,0,.91.91,0,0,0-.74.23,1,1,0,0,1-.73.26,4,4,0,0,0-1.86.68,2.89,2.89,0,0,0-1.45,2.28,20.42,20.42,0,0,0,0,2.07c.11,2.43.27,4.85.27,7.28,0,4.22-.06,8.44-.14,12.65,0,1.07,0,2.14,0,3.21a1.28,1.28,0,0,1-.78,1.28c-.6.28-1.2.57-1.82.83a3.92,3.92,0,0,0-1.26.82,5.6,5.6,0,0,0-1.35,2.15,2.45,2.45,0,0,0,0,1.88,7.32,7.32,0,0,1,.27.83c.18.56.35,1.12.55,1.67a1.24,1.24,0,0,0,1.5.92c.95-.08,1.91-.2,2.86-.33,1.2-.16,1-.16,1.11.85.32,2.33.55,4.67.64,7a82.8,82.8,0,0,1-.23,11.68c-.23,2.26-.53,4.5-1,6.73C298.15,483.51,298.08,483.69,298.2,483.86Zm-87.69-42.28a3.31,3.31,0,0,1-.84-.65l-18.15-17.28a5,5,0,0,0-.42-.38.92.92,0,0,0-1.37,0,9.8,9.8,0,0,1-1.78,1.21,5.58,5.58,0,0,0-1.38,1.09,1.57,1.57,0,0,0-.16,2.11,5.24,5.24,0,0,0,1,1.12c3,2.64,6,5.26,9,7.91q6.47,5.75,12.9,11.52a1.17,1.17,0,0,1,.44.51c-.45.59-.92,1.2-1.38,1.82-2.26,3-4.57,6-7.1,8.77q-7.56,8.32-15.11,16.67a24.43,24.43,0,0,1-4.88,4.25,7.69,7.69,0,0,0-1.81,1.79,1.41,1.41,0,0,0-.14,1.58,6.68,6.68,0,0,0,.68,1,.93.93,0,0,0,.76.38,2.77,2.77,0,0,0,1.46-.33l2.12-1.13a13.78,13.78,0,0,0,3.18-2.4c6-6,11.86-12.14,17.75-18.26,1.42-1.48,2.81-3,4.22-4.49.09-.1.17-.23.32-.2s.24.21.26.36a5.23,5.23,0,0,1,0,.56c0,2,0,4.06-.05,6.08,0,1.28,0,2.57,0,3.85,0,1.63-.1,3.25-.22,4.87-.09,1.17-.24,2.34-.39,3.5a28.35,28.35,0,0,0-.42,3.9c0,.53,0,1.06-.06,1.6s0,.9,0,1.36a.47.47,0,0,0,.08.29.65.65,0,0,0,.85.08l1.52-1.31c.11-.09.21-.25.4-.18s.17.27.22.41c.32.8.62,1.6.93,2.39.15.39.2.41.59.26l.3-.11a4.27,4.27,0,0,1,2.48-.43,2.17,2.17,0,0,0,1.25-.23,9.8,9.8,0,0,0,1.64-1,29.7,29.7,0,0,0,5-4.8,5.12,5.12,0,0,0,1.21-2.91c.06-.66.11-1.33.12-2,0-2,0-4.06.07-6.09.07-2.93.17-5.87.27-8.8.08-2.64.18-5.28.27-7.92.05-1.66.08-3.31.15-5,.14-3.39.22-6.78.33-10.16,0-1.58.08-3.15.15-4.72.11-2.59.16-5.18.23-7.77,0-1,.12-2,.24-3a17.88,17.88,0,0,0,.18-2.07,2.37,2.37,0,0,0-2-2.39,2.8,2.8,0,0,0-1.57.18c-3.06,1.18-6.11,2.39-9.11,3.72a7.79,7.79,0,0,0-1.25.72,6.18,6.18,0,0,0-2.74,5c0,1.07-.06,2.14,0,3.2a100.87,100.87,0,0,1-.17,10.72C210.6,440.74,210.56,441.11,210.51,441.58ZM267.94,419c-.18-.34-.31-.54-.4-.76a1.59,1.59,0,0,0-1.24-1c-.68-.15-.87-.1-1.25.5a.72.72,0,0,1-.73.38c-.32,0-.64,0-1-.05a1.34,1.34,0,0,0-1.35.68,4.31,4.31,0,0,1-1.52,1.39l-.91.51a5.58,5.58,0,0,0-2.28,2.5,8.21,8.21,0,0,0-.48,1.45q-1.84,7.6-3.7,15.23c-1.86,7.64-3.86,15.25-6.07,22.8-1.59,5.48-3.24,10.94-4.72,16.45a15.31,15.31,0,0,1-1.06,2.93c-.13.26-.23.54-.34.81a1.28,1.28,0,0,0,.26,1.48,5,5,0,0,1,.76,1.12,1.29,1.29,0,0,0,1.81.68,4.94,4.94,0,0,0,1.13-.61,10.86,10.86,0,0,1,1.52-.87,6.74,6.74,0,0,0,2.72-2.3,10.44,10.44,0,0,0,1.41-2.86c1-3.06,2-6.12,3.06-9.18q.84-2.5,1.67-5a1.56,1.56,0,0,1,1.6-1.19c.82,0,1.65-.08,2.47-.13l7.12-.35c.37,0,.75,0,1.12,0a.91.91,0,0,1,1.08.83c.1.36.14.73.21,1.1.63,3.32,1.24,6.65,1.89,10,.38,2,.72,4,1.26,5.94.23.82.45,1.65.68,2.47.07.24.2.3.42.21a4.45,4.45,0,0,0,1-.63,6.19,6.19,0,0,1,1.21-.77,4.27,4.27,0,0,0,1.3-.92l1-1c.18-.19.34-.36.56,0,.07.11.25.06.38.06a3.73,3.73,0,0,0,2.54-1.2,4.58,4.58,0,0,0,1.08-5,10.21,10.21,0,0,1-.5-1.69c-.44-2.63-.85-5.26-1.29-7.89s-.85-5.22-1.35-7.81c-1.31-6.78-2.79-13.52-4.19-20.28-.65-3.14-1.3-6.27-1.86-9.42-.49-2.76-1-5.51-1.46-8.27a8.18,8.18,0,0,0-.31-1.32c-.2-.62-.57-.78-1.18-.53A3.62,3.62,0,0,0,267.94,419Zm96.16,68.75c0,.21,0,.31,0,.42a1.28,1.28,0,0,0,.81,1.34c.38.19.76.38,1.15.55a1.66,1.66,0,0,0,1.81-.2l.95-.72a3.19,3.19,0,0,1,1.85-.69,3,3,0,0,0,1.43-.46,8.55,8.55,0,0,0,1-.76,8.64,8.64,0,0,1,1.45-1.12,4.75,4.75,0,0,0,1.73-1.63c.27-.4.53-.81.8-1.2a2.74,2.74,0,0,0,.45-1.43,8.81,8.81,0,0,0,0-.89c-.06-.93-.14-1.86-.2-2.79a10.46,10.46,0,0,1,0-1.12c.07-1.14.16-2.29.23-3.43.13-2.13.25-4.26.38-6.39.05-.88.11-1.76.17-2.64.14-2,.29-4,.42-6,.08-1.19.14-2.39.22-3.59.18-2.74.38-5.48.56-8.22.14-2.08.26-4.16.39-6.23.05-.88.11-1.76.17-2.64q.21-3,.41-5.91c.13-2,.25-4,.38-6.07.05-.77.11-1.54.17-2.31,0-.4.09-.48.47-.52a24.23,24.23,0,0,1,2.54-.24q3.13,0,6.25.09c1.36,0,2.72.1,4.08.13a3.5,3.5,0,0,0,2.28-.85,1.28,1.28,0,0,0,.53-.86,2.85,2.85,0,0,1,1.24-1.89c.23-.17.49-.31.73-.48a5.1,5.1,0,0,0,.62-.51,1,1,0,0,0,.27-.88c-.05-.36-.19-.53-.57-.52-.64,0-1.28.05-1.92.1-1.6.12-3.19.28-4.79.38-1.35.08-2.72.11-4.08.13l-7,.06a5.21,5.21,0,0,1-.88-.06,1.51,1.51,0,0,1-1.12-.82.94.94,0,0,1-.06-.15.41.41,0,0,0-.52-.25c-.16,0-.32,0-.48.08a1.83,1.83,0,0,1-1.24-.13,5,5,0,0,0-3.13-.31,6,6,0,0,1-2.15.1,2.39,2.39,0,0,0-1.88.52,5.3,5.3,0,0,0-.84.73,2.29,2.29,0,0,1-1.78.75c-1.25,0-2.5.1-3.76.14l-6.24.2-1.52,0a6.07,6.07,0,0,0-3.13,1.08,2.48,2.48,0,0,0-1,1.31c-.18.59-.37,1.17-.57,1.75a1,1,0,0,0,.29,1.16,2.73,2.73,0,0,1,.56.66.82.82,0,0,0,1,.38,5.91,5.91,0,0,0,.69-.19,8.19,8.19,0,0,1,2.91-.43c1.47.07,2.93.1,4.4.15l5.76.2c.52,0,.54.05.53.55,0,.22,0,.43,0,.64-.08,1.12-.17,2.24-.24,3.35-.17,2.59-.33,5.17-.5,7.75l-.3,4.71q-.25,3.8-.49,7.59l-.48,7.19c-.17,2.55-.33,5.11-.53,7.66-.09,1.25-.24,2.5-.37,3.74l-.42,4c-.13,1.33-.25,2.66-.37,4l-.42,4.31c-.14,1.48-.29,3-.43,4.46-.07.74-.14,1.48-.2,2.23a3.77,3.77,0,0,0,.05,1.11.24.24,0,0,0,.35.2ZM103.3,421.92c-.16-.26-.27-.42-.35-.58a2,2,0,0,0-1.83-1.09.72.72,0,0,0-.81.38.62.62,0,0,1-.68.31c-.4-.05-.79-.11-1.19-.15a1.29,1.29,0,0,0-1.21.48,3.92,3.92,0,0,1-1.63,1.12c-.39.17-.79.32-1.18.5A4.43,4.43,0,0,0,92,425.81c-.69,2.54-1.4,5.08-2.1,7.63-1.42,5.17-2.84,10.33-4.41,15.46-2.35,7.68-5.1,15.22-7.51,22.87a6.86,6.86,0,0,1-.67,1.46,8.46,8.46,0,0,0-.43.85,1,1,0,0,0,.23,1.24,5.73,5.73,0,0,1,.91,1.11,1.5,1.5,0,0,0,1.74.67,5.94,5.94,0,0,0,1.2-.43,11.37,11.37,0,0,1,1.77-.73,5.69,5.69,0,0,0,1.83-1,7,7,0,0,0,2.09-2.88c.39-1,.77-1.93,1.15-2.9l3.42-8.8c.33-.84.61-1,1.51-1,1.78,0,3.57,0,5.36.12s3.31.07,5,.1c.4,0,.8.05,1.2.09a.82.82,0,0,1,.73.54,5.88,5.88,0,0,1,.27.84l2.28,9.15a57.34,57.34,0,0,0,2,6.66l.17.45a.22.22,0,0,0,.26.13.9.9,0,0,0,.23-.08c1-.44,2-.87,3-1.36a8,8,0,0,0,1.23-.89c.28-.22.54-.52.92-.12.05.06.2,0,.31,0a3.55,3.55,0,0,0,1.63-.32,3.4,3.4,0,0,0,1.92-4.78,6.39,6.39,0,0,1-.6-1.65c-.17-.75-.33-1.51-.5-2.26-.71-3.23-1.38-6.47-2.18-9.68-1.19-4.78-2.54-9.53-3.85-14.28-1.08-3.91-2.2-7.81-3.15-11.74-.67-2.78-1.33-5.55-2-8.32a5,5,0,0,0-.2-.69.92.92,0,0,0-1.22-.62A3.58,3.58,0,0,0,103.3,421.92Zm54.54,26.93-.18.07-.18-.25c-1.93-2.42-3.9-4.82-5.78-7.28-3.23-4.24-6.42-8.52-9.62-12.79-.37-.49-.74-1-1.1-1.48a2.15,2.15,0,0,1-.47-1.42,4,4,0,0,0-.48-1.91.67.67,0,0,0-.7-.44c-.29,0-.58,0-.88,0a14.51,14.51,0,0,1-3.42.14c-.16,0-.32,0-.48,0a3.59,3.59,0,0,0-2.64,1,12.48,12.48,0,0,0-1.51,1.65,1.43,1.43,0,0,0-.3,1.05c.07.63.1,1.27.21,1.9.39,2.32.58,4.66.77,7,.1,1.22.2,2.45.37,3.66q.5,3.54.7,7.09c.13,2.29.21,4.58.31,6.88s.22,4.31.31,6.47c.13,3,.25,6,.38,9,0,.91.08,1.81.13,2.72a1,1,0,0,0,1.21,1.08l.32,0,.72-.05c1.62-.13,3.24-.24,4.86-.39a4.83,4.83,0,0,0,1.71-.38,5.51,5.51,0,0,0,2-1.76,1.57,1.57,0,0,0,.29-1.36c-.12-.47-.2-.94-.33-1.4a29.49,29.49,0,0,1-1-5.51c-.13-1.54-.25-3.08-.38-4.63-.07-.85-.13-1.7-.2-2.55-.14-1.57-.29-3.13-.42-4.7-.13-1.41-.25-2.82-.38-4.23-.14-1.62-.29-3.24-.43-4.86-.09-1.17-.18-2.34-.26-3.51-.06-1-.1-2-.16-3.08a1.54,1.54,0,0,1,.71.64c.88,1.11,1.74,2.23,2.62,3.35,3.56,4.53,7.25,9,10.88,13.44l3.28,4a1.83,1.83,0,0,1,.51,1,26.39,26.39,0,0,1,.37,3.66,19.09,19.09,0,0,0,.06,2,29.92,29.92,0,0,0,.6,3.87,14,14,0,0,0,.51,2.1c.12.31.2.36.55.25a33.72,33.72,0,0,1,3.74-.84,17.34,17.34,0,0,0,3.06-.91,10.23,10.23,0,0,0,2.93-1.78,2.7,2.7,0,0,0,.71-1c.32-.78.28-1-.4-1.47a1.11,1.11,0,0,1-.51-.86l0-.23a36.8,36.8,0,0,0-.74-3.93c-.3-1.14-.59-2.28-.86-3.42a36.09,36.09,0,0,1-.69-4.74q-.3-3.24-.61-6.46c-.12-1.17-.24-2.33-.38-3.5-.18-1.51-.38-3-.58-4.52l-.54-4.29c-.19-1.48-.38-3-.56-4.45s-.35-3.23-.53-4.85a4.13,4.13,0,0,0-.14-.7.57.57,0,0,0-.59-.46c-.34,0-.69,0-1,0s-.39.07-.38.3c0,.44-.3.51-.62.57-.55.12-1.1.22-1.64.35-.3.06-.32.08-.33.43s-.06.37-.34.43a1.41,1.41,0,0,0-.84.58,4,4,0,0,1-1.21,1,4.45,4.45,0,0,0-1.7,1.77,2.42,2.42,0,0,0-.35,1.77,13.86,13.86,0,0,1,.32,2.13l.39,3.34c.18,1.67.35,3.34.54,5s.37,3.39.47,5.1c.07,1.22.16,2.45.24,3.67C157.8,447.58,157.81,448.22,157.84,448.85Z" transform="translate(-15.14 -379.49)"/><path class="cls-1" d="M54.86,404.1a1.3,1.3,0,0,0,.62-.08,1.08,1.08,0,0,1,1.21.58,1,1,0,0,1,.15.29c.16.59.64.74,1.16.82s.84.09,1.27.14a20.09,20.09,0,0,1,11.08,4.75,18.65,18.65,0,0,1,4.39,5.14,15.13,15.13,0,0,1,2,8.62A17.2,17.2,0,0,1,72,435.22a25.79,25.79,0,0,1-9.29,6.38c-.47.2-1,.37-1.41.58-.65.3-.81.53-.73,1.25.1.93.25,1.85.38,2.77l.75,5.15c.24,1.69.49,3.38.72,5.07s.48,3.54.72,5.31c.18,1.35.35,2.7.53,4,.25,1.87.46,3.76.62,5.64a53.91,53.91,0,0,1,.12,6.48q0,.48-.06,1a11.14,11.14,0,0,0,0,2c0,.66.08,1.33.11,2a2.47,2.47,0,0,1-.72,1.81,4,4,0,0,1-1,.78A38.48,38.48,0,0,1,58,487.77a3,3,0,0,1-1.17.24c-.83,0-1.65-.07-2.48-.1-.36-.23-.59,0-.84.21s-.53.45-.8.67a1.51,1.51,0,0,1-.26.18.26.26,0,0,1-.37-.18c0-.13,0-.26,0-.4,0-1.17,0-2.35,0-3.52-.08-2.56-.17-5.12-.38-7.67-.16-1.92-.33-3.83-.56-5.74s-.52-4-.82-6c-.4-2.61-.87-5.21-1.38-7.8-.73-3.74-1.55-7.47-2.43-11.18a2,2,0,0,0-.06-.23c-.07-.25-.16-.31-.4-.25-.79.16-1.57.34-2.35.51a7.2,7.2,0,0,1-.78.16c-.4,0-.63-.19-.56-.58a4.47,4.47,0,0,1,1.42-2.71c.35-.29.69-.58,1.06-.85a1.68,1.68,0,0,0,.69-1.75q-.54-4.32-1-8.66t-1-8.66l-1-8.26c0-.4-.08-.8-.15-1.2s-.13-.57-.21-.85-.18-.23-.38-.17l-.53.17-4.64,1.53a5.09,5.09,0,0,1-.77.19.39.39,0,0,1-.45-.5,5,5,0,0,1,1-2.26,8.8,8.8,0,0,1,5-3.16c.1,0,.21,0,.31-.08a.18.18,0,0,0,.12-.25l-.18-.44a3.7,3.7,0,0,1,.95-4.38,6.23,6.23,0,0,1,.62-.51.83.83,0,0,1,.41-.22c.49,0,.82-.12.87-.67,0-.15.19-.17.33-.14a4.5,4.5,0,0,0,1.27,0,8.2,8.2,0,0,0,2.23-.61l1.4-.59a15.62,15.62,0,0,1,4.06-1.18,1.83,1.83,0,0,1,.87,0,1,1,0,0,1,.76,1,2.25,2.25,0,0,1-.11.62,13.9,13.9,0,0,0-.34,2.13A.6.6,0,0,0,54.86,404.1Zm16.58,22.59a14.33,14.33,0,0,0-.56-3.54,15.61,15.61,0,0,0-5.17-7.64,20.34,20.34,0,0,0-6.81-3.78c-.4-.13-.8-.28-1.21-.4a.18.18,0,0,0-.25.2c0,.56.09,1.12.14,1.68.14,1.64.3,3.29.44,4.93.13,1.36.24,2.71.36,4.07.15,1.56.29,3.13.43,4.69s.25,2.82.37,4.23c.15,1.59.3,3.18.44,4.77.06.69.12,1.38.19,2.07,0,.21.13.29.32.25l.23-.07c1.38-.41,2.76-.81,4.13-1.24a16.13,16.13,0,0,0,2.1-.79,6.13,6.13,0,0,0,2.4-1.94A13.17,13.17,0,0,0,71.44,426.69Z" transform="translate(-15.14 -379.49)"/><path class="cls-1" d="M298.2,483.86c-.12-.17-.05-.35,0-.53.43-2.23.73-4.47,1-6.73a82.8,82.8,0,0,0,.23-11.68c-.09-2.34-.32-4.68-.64-7-.14-1,.09-1-1.11-.85-.95.13-1.91.25-2.86.33a1.24,1.24,0,0,1-1.5-.92c-.2-.55-.37-1.11-.55-1.67a7.32,7.32,0,0,0-.27-.83,2.45,2.45,0,0,1,0-1.88,5.6,5.6,0,0,1,1.35-2.15,3.92,3.92,0,0,1,1.26-.82c.62-.26,1.22-.55,1.82-.83a1.28,1.28,0,0,0,.78-1.28c0-1.07,0-2.14,0-3.21.08-4.21.14-8.43.14-12.65,0-2.43-.16-4.85-.27-7.28a20.42,20.42,0,0,1,0-2.07,2.89,2.89,0,0,1,1.45-2.28,4,4,0,0,1,1.86-.68,1,1,0,0,0,.73-.26.91.91,0,0,1,.74-.23,6.9,6.9,0,0,1,1.12,0,5.7,5.7,0,0,0,2.14-.08l5-.82a8,8,0,0,1,1.83,0,2.09,2.09,0,0,1,.85.21.55.55,0,0,1,.34.78c-.17.51-.36,1-.54,1.51a6.17,6.17,0,0,0-.19.61c-.05.14.05.24.22.23l.56,0a1.08,1.08,0,0,1,1.23.79.91.91,0,0,0,.83.65c.6.11,1.21.19,1.81.29a27.24,27.24,0,0,1,7,2.11,21.3,21.3,0,0,1,6.53,4.54,10.82,10.82,0,0,1,3,5.39,12,12,0,0,1-2.25,10.06,20.08,20.08,0,0,1-4.12,4,38.31,38.31,0,0,1-6,3.57l-5,2.49a1.24,1.24,0,0,0-.18.14,1.71,1.71,0,0,0,.52.61c3.79,3.84,7.49,7.76,11.21,11.67a113.61,113.61,0,0,1,9.16,10.8c.28.39.59.76.88,1.14a2.88,2.88,0,0,1,.3.47.8.8,0,0,1-.21,1.14,1.82,1.82,0,0,1-.38.29,8.59,8.59,0,0,1-1.76.76,1,1,0,0,1-1-.27,1.89,1.89,0,0,1-.25-.31,58.4,58.4,0,0,0-5.53-6.43c-2.7-2.92-5.41-5.84-8.16-8.71-2.15-2.26-4.38-4.45-6.58-6.67-.23-.23-.44-.54-.83-.53-.17.3-.05.62-.05.93,0,1.22.07,2.45.08,3.68,0,2.56.07,5.12,0,7.68a24.69,24.69,0,0,1-.93,6.16,8.77,8.77,0,0,0-.35,2,5.83,5.83,0,0,1-.17,1,2.08,2.08,0,0,1-1.35,1.56c-.23.08-.45.18-.68.25a42.37,42.37,0,0,1-4.7,1.28,12.15,12.15,0,0,1-3.51.17,6.41,6.41,0,0,1-1.74-.24.62.62,0,0,0-.46.06l-1.28.47A.68.68,0,0,1,298.2,483.86Zm12.56-56.05c.09.82.16,1.62.24,2.42.15,1.37.3,2.75.44,4.13.13,1.19.25,2.39.38,3.58s.28,2.55.41,3.82.25,2.44.38,3.66c.05.5.1,1,.16,1.51a.25.25,0,0,0,.35.22,46,46,0,0,0,4.73-1.17,27.2,27.2,0,0,1,2.84-.82,4.14,4.14,0,0,0,2.82-2.05c.45-.76.92-1.51,1.36-2.27a6.2,6.2,0,0,0,.44-.94,4.79,4.79,0,0,0,.31-2.12,6.34,6.34,0,0,0-.65-2.29,12,12,0,0,0-2.15-3.07,16.18,16.18,0,0,0-4.88-3.3,26.67,26.67,0,0,0-6.3-2c-.3-.06-.65-.31-.89-.08S310.81,427.55,310.76,427.81Z" transform="translate(-15.14 -379.49)"/><path class="cls-1" d="M210.51,441.58c.05-.47.09-.84.12-1.21a100.87,100.87,0,0,0,.17-10.72c0-1.06,0-2.13,0-3.2a6.18,6.18,0,0,1,2.74-5,7.79,7.79,0,0,1,1.25-.72c3-1.33,6.05-2.54,9.11-3.72a2.8,2.8,0,0,1,1.57-.18,2.37,2.37,0,0,1,2,2.39,17.88,17.88,0,0,1-.18,2.07c-.12,1-.21,2-.24,3-.07,2.59-.12,5.18-.23,7.77-.07,1.57-.1,3.14-.15,4.72-.11,3.38-.19,6.77-.33,10.16-.07,1.65-.1,3.3-.15,5-.09,2.64-.19,5.28-.27,7.92-.1,2.93-.2,5.87-.27,8.8,0,2,0,4.06-.07,6.09,0,.66-.06,1.33-.12,2a5.12,5.12,0,0,1-1.21,2.91,29.7,29.7,0,0,1-5,4.8,9.8,9.8,0,0,1-1.64,1,2.17,2.17,0,0,1-1.25.23,4.27,4.27,0,0,0-2.48.43l-.3.11c-.39.15-.44.13-.59-.26-.31-.79-.61-1.59-.93-2.39,0-.14-.07-.31-.22-.41s-.29.09-.4.18l-1.52,1.31a.65.65,0,0,1-.85-.08.47.47,0,0,1-.08-.29c0-.46,0-.91,0-1.36s.06-1.07.06-1.6a28.35,28.35,0,0,1,.42-3.9c.15-1.16.3-2.33.39-3.5.12-1.62.22-3.24.22-4.87,0-1.28,0-2.57,0-3.85,0-2,0-4.05.05-6.08a5.23,5.23,0,0,0,0-.56c0-.15-.07-.33-.26-.36s-.23.1-.32.2c-1.41,1.49-2.8,3-4.22,4.49-5.89,6.12-11.76,12.25-17.75,18.26a13.78,13.78,0,0,1-3.18,2.4l-2.12,1.13a2.77,2.77,0,0,1-1.46.33.93.93,0,0,1-.76-.38,6.68,6.68,0,0,1-.68-1,1.41,1.41,0,0,1,.14-1.58,7.69,7.69,0,0,1,1.81-1.79,24.43,24.43,0,0,0,4.88-4.25q7.56-8.33,15.11-16.67c2.53-2.79,4.84-5.76,7.1-8.77.46-.62.93-1.23,1.38-1.82a1.17,1.17,0,0,0-.44-.51q-6.45-5.76-12.9-11.52c-3-2.65-6-5.27-9-7.91a5.24,5.24,0,0,1-1-1.12,1.57,1.57,0,0,1,.16-2.11,5.58,5.58,0,0,1,1.38-1.09,9.8,9.8,0,0,0,1.78-1.21.92.92,0,0,1,1.37,0,5,5,0,0,1,.42.38l18.15,17.28A3.31,3.31,0,0,0,210.51,441.58Z" transform="translate(-15.14 -379.49)"/><path class="cls-1" d="M267.94,419a3.62,3.62,0,0,1,2.08-1.59c.61-.25,1-.09,1.18.53a8.18,8.18,0,0,1,.31,1.32c.49,2.76,1,5.51,1.46,8.27.56,3.15,1.21,6.28,1.86,9.42,1.4,6.76,2.88,13.5,4.19,20.28.5,2.59.91,5.2,1.35,7.81s.85,5.26,1.29,7.89a10.21,10.21,0,0,0,.5,1.69,4.58,4.58,0,0,1-1.08,5,3.73,3.73,0,0,1-2.54,1.2c-.13,0-.31.05-.38-.06-.22-.34-.38-.17-.56,0l-1,1a4.27,4.27,0,0,1-1.3.92,6.19,6.19,0,0,0-1.21.77,4.45,4.45,0,0,1-1,.63c-.22.09-.35,0-.42-.21-.23-.82-.45-1.65-.68-2.47-.54-1.95-.88-3.95-1.26-5.94-.65-3.33-1.26-6.66-1.89-10-.07-.37-.11-.74-.21-1.1a.91.91,0,0,0-1.08-.83c-.37,0-.75,0-1.12,0l-7.12.35c-.82,0-1.65.13-2.47.13a1.56,1.56,0,0,0-1.6,1.19q-.83,2.5-1.67,5c-1,3.06-2,6.12-3.06,9.18a10.44,10.44,0,0,1-1.41,2.86,6.74,6.74,0,0,1-2.72,2.3,10.86,10.86,0,0,0-1.52.87,4.94,4.94,0,0,1-1.13.61,1.29,1.29,0,0,1-1.81-.68,5,5,0,0,0-.76-1.12,1.28,1.28,0,0,1-.26-1.48c.11-.27.21-.55.34-.81a15.31,15.31,0,0,0,1.06-2.93c1.48-5.51,3.13-11,4.72-16.45,2.21-7.55,4.21-15.16,6.07-22.8q1.84-7.62,3.7-15.23a8.21,8.21,0,0,1,.48-1.45,5.58,5.58,0,0,1,2.28-2.5l.91-.51a4.31,4.31,0,0,0,1.52-1.39,1.34,1.34,0,0,1,1.35-.68c.32,0,.64,0,1,.05a.72.72,0,0,0,.73-.38c.38-.6.57-.65,1.25-.5a1.59,1.59,0,0,1,1.24,1C267.63,418.42,267.76,418.62,267.94,419Zm-10.07,40.85,3.35-.24,4.71-.39c.5,0,1-.09,1.51-.15s.48-.11.36-.57l-.09-.3c-1-3.44-1.88-6.89-2.78-10.35s-1.77-6.86-2.77-10.26c-.06-.19,0-.53-.26-.52s-.25.35-.29.56c-.61,3.44-1.3,6.86-2,10.28-.78,3.82-1.56,7.63-2.23,11.46,0,.1,0,.21-.05.31a.17.17,0,0,0,.14.17A2.62,2.62,0,0,0,257.87,459.81Z" transform="translate(-15.14 -379.49)"/><path class="cls-1" d="M364.1,487.71l-1.15.37a.24.24,0,0,1-.35-.2,3.77,3.77,0,0,1-.05-1.11c.06-.75.13-1.49.2-2.23.14-1.49.29-3,.43-4.46l.42-4.31c.12-1.32.24-2.65.37-4l.42-4c.13-1.24.28-2.49.37-3.74.2-2.55.36-5.11.53-7.66l.48-7.19q.24-3.8.49-7.59l.3-4.71c.17-2.58.33-5.16.5-7.75.07-1.11.16-2.23.24-3.35,0-.21,0-.42,0-.64,0-.5,0-.53-.53-.55l-5.76-.2c-1.47-.05-2.93-.08-4.4-.15a8.19,8.19,0,0,0-2.91.43,5.91,5.91,0,0,1-.69.19.82.82,0,0,1-1-.38,2.73,2.73,0,0,0-.56-.66,1,1,0,0,1-.29-1.16c.2-.58.39-1.16.57-1.75a2.48,2.48,0,0,1,1-1.31,6.07,6.07,0,0,1,3.13-1.08l1.52,0,6.24-.2c1.26,0,2.51-.12,3.76-.14a2.29,2.29,0,0,0,1.78-.75,5.3,5.3,0,0,1,.84-.73,2.39,2.39,0,0,1,1.88-.52,6,6,0,0,0,2.15-.1,5,5,0,0,1,3.13.31,1.83,1.83,0,0,0,1.24.13c.16,0,.32,0,.48-.08a.41.41,0,0,1,.52.25.94.94,0,0,0,.06.15,1.51,1.51,0,0,0,1.12.82,5.21,5.21,0,0,0,.88.06l7-.06c1.36,0,2.73-.05,4.08-.13,1.6-.1,3.19-.26,4.79-.38.64-.05,1.28-.09,1.92-.1.38,0,.52.16.57.52a1,1,0,0,1-.27.88,5.1,5.1,0,0,1-.62.51c-.24.17-.5.31-.73.48a2.85,2.85,0,0,0-1.24,1.89,1.28,1.28,0,0,1-.53.86,3.5,3.5,0,0,1-2.28.85c-1.36,0-2.72-.1-4.08-.13q-3.12-.06-6.25-.09a24.23,24.23,0,0,0-2.54.24c-.38,0-.44.12-.47.52-.06.77-.12,1.54-.17,2.31-.13,2-.25,4.05-.38,6.07s-.27,3.94-.41,5.91c-.06.88-.12,1.76-.17,2.64-.13,2.07-.25,4.15-.39,6.23-.18,2.74-.38,5.48-.56,8.22-.08,1.2-.14,2.4-.22,3.59-.13,2-.28,4-.42,6-.06.88-.12,1.76-.17,2.64-.13,2.13-.25,4.26-.38,6.39-.07,1.14-.16,2.29-.23,3.43a10.46,10.46,0,0,0,0,1.12c.06.93.14,1.86.2,2.79a8.81,8.81,0,0,1,0,.89,2.74,2.74,0,0,1-.45,1.43c-.27.39-.53.8-.8,1.2a4.75,4.75,0,0,1-1.73,1.63,8.64,8.64,0,0,0-1.45,1.12,8.55,8.55,0,0,1-1,.76,3,3,0,0,1-1.43.46,3.19,3.19,0,0,0-1.85.69l-.95.72a1.66,1.66,0,0,1-1.81.2c-.39-.17-.77-.36-1.15-.55a1.28,1.28,0,0,1-.81-1.34C364.11,488,364.1,487.92,364.1,487.71Z" transform="translate(-15.14 -379.49)"/><path class="cls-1" d="M103.3,421.92a3.58,3.58,0,0,1,2.18-1.22.92.92,0,0,1,1.22.62,5,5,0,0,1,.2.69c.67,2.77,1.33,5.54,2,8.32.95,3.93,2.07,7.83,3.15,11.74,1.31,4.75,2.66,9.5,3.85,14.28.8,3.21,1.47,6.45,2.18,9.68.17.75.33,1.51.5,2.26a6.39,6.39,0,0,0,.6,1.65,3.4,3.4,0,0,1-1.92,4.78,3.55,3.55,0,0,1-1.63.32c-.11,0-.26,0-.31,0-.38-.4-.64-.1-.92.12a8,8,0,0,1-1.23.89c-1,.49-2,.92-3,1.36a.9.9,0,0,1-.23.08.22.22,0,0,1-.26-.13l-.17-.45a57.34,57.34,0,0,1-2-6.66l-2.28-9.15a5.88,5.88,0,0,0-.27-.84.82.82,0,0,0-.73-.54c-.4,0-.8-.08-1.2-.09-1.65,0-3.31,0-5-.1s-3.58-.1-5.36-.12c-.9,0-1.18.17-1.51,1l-3.42,8.8c-.38,1-.76,1.94-1.15,2.9A7,7,0,0,1,84.55,475a5.69,5.69,0,0,1-1.83,1,11.37,11.37,0,0,0-1.77.73,5.94,5.94,0,0,1-1.2.43,1.5,1.5,0,0,1-1.74-.67,5.73,5.73,0,0,0-.91-1.11,1,1,0,0,1-.23-1.24,8.46,8.46,0,0,1,.43-.85,6.86,6.86,0,0,0,.67-1.46c2.41-7.65,5.16-15.19,7.51-22.87,1.57-5.13,3-10.29,4.41-15.46.7-2.55,1.41-5.09,2.1-7.63a4.43,4.43,0,0,1,2.43-2.92c.39-.18.79-.33,1.18-.5a3.92,3.92,0,0,0,1.63-1.12,1.29,1.29,0,0,1,1.21-.48c.4,0,.79.1,1.19.15a.62.62,0,0,0,.68-.31.72.72,0,0,1,.81-.38,2,2,0,0,1,1.83,1.09C103,421.5,103.14,421.66,103.3,421.92Zm.75,33.9a.55.55,0,0,0,0-.49c-1.48-4.08-2.83-8.21-4.22-12.32-.64-1.87-1.3-3.72-2-5.58a6,6,0,0,0-.26-.58s-.1,0-.14,0a.16.16,0,0,0-.12.09,3.45,3.45,0,0,0-.12.46c-.23,1.07-.43,2.14-.67,3.2-.79,3.59-1.6,7.18-2.38,10.77-.3,1.35-.57,2.71-.85,4.07-.06.3,0,.4.3.42H94l7.76,0C102.52,455.85,103.29,455.83,104.05,455.82Z" transform="translate(-15.14 -379.49)"/><path class="cls-1" d="M157.84,448.85c0-.63,0-1.27-.08-1.9-.08-1.22-.17-2.45-.24-3.67-.1-1.71-.28-3.4-.47-5.1s-.36-3.34-.54-5l-.39-3.34a13.86,13.86,0,0,0-.32-2.13,2.42,2.42,0,0,1,.35-1.77,4.45,4.45,0,0,1,1.7-1.77,4,4,0,0,0,1.21-1,1.41,1.41,0,0,1,.84-.58c.28-.06.34-.18.34-.43s0-.37.33-.43c.54-.13,1.09-.23,1.64-.35.32-.06.63-.13.62-.57,0-.23.17-.3.38-.3s.7,0,1,0a.57.57,0,0,1,.59.46,4.13,4.13,0,0,1,.14.7c.18,1.62.35,3.24.53,4.85s.37,3,.56,4.45l.54,4.29c.2,1.51.4,3,.58,4.52.14,1.17.26,2.33.38,3.5q.31,3.22.61,6.46a36.09,36.09,0,0,0,.69,4.74c.27,1.14.56,2.28.86,3.42a36.8,36.8,0,0,1,.74,3.93l0,.23a1.11,1.11,0,0,0,.51.86c.68.49.72.69.4,1.47a2.7,2.7,0,0,1-.71,1,10.23,10.23,0,0,1-2.93,1.78,17.34,17.34,0,0,1-3.06.91,33.72,33.72,0,0,0-3.74.84c-.35.11-.43.06-.55-.25a14,14,0,0,1-.51-2.1,29.92,29.92,0,0,1-.6-3.87,19.09,19.09,0,0,1-.06-2,26.39,26.39,0,0,0-.37-3.66,1.83,1.83,0,0,0-.51-1l-3.28-4c-3.63-4.48-7.32-8.91-10.88-13.44-.88-1.12-1.74-2.24-2.62-3.35a1.54,1.54,0,0,0-.71-.64c.06,1.06.1,2.07.16,3.08.08,1.17.17,2.34.26,3.51.14,1.62.29,3.24.43,4.86.13,1.41.25,2.82.38,4.23.13,1.57.28,3.13.42,4.7.07.85.13,1.7.2,2.55.13,1.55.25,3.09.38,4.63a29.49,29.49,0,0,0,1,5.51c.13.46.21.93.33,1.4a1.57,1.57,0,0,1-.29,1.36,5.51,5.51,0,0,1-2,1.76,4.83,4.83,0,0,1-1.71.38c-1.62.15-3.24.26-4.86.39l-.72.05-.32,0a1,1,0,0,1-1.21-1.08c-.05-.91-.09-1.81-.13-2.72-.13-3-.25-6-.38-9-.09-2.16-.21-4.31-.31-6.47s-.18-4.59-.31-6.88-.37-4.73-.7-7.09c-.17-1.21-.27-2.44-.37-3.66-.19-2.34-.38-4.68-.77-7-.11-.63-.14-1.27-.21-1.9a1.43,1.43,0,0,1,.3-1.05,12.48,12.48,0,0,1,1.51-1.65,3.59,3.59,0,0,1,2.64-1c.16,0,.32,0,.48,0a14.51,14.51,0,0,0,3.42-.14c.3,0,.59,0,.88,0a.67.67,0,0,1,.7.44,4,4,0,0,1,.48,1.91,2.15,2.15,0,0,0,.47,1.42c.36.5.73,1,1.1,1.48,3.2,4.27,6.39,8.55,9.62,12.79,1.88,2.46,3.85,4.86,5.78,7.28l.18.25Z" transform="translate(-15.14 -379.49)"/><path class="cls-2" d="M71.44,426.69A13.17,13.17,0,0,1,69,434.18a6.13,6.13,0,0,1-2.4,1.94,16.13,16.13,0,0,1-2.1.79c-1.37.43-2.75.83-4.13,1.24l-.23.07c-.19,0-.3,0-.32-.25-.07-.69-.13-1.38-.19-2.07-.14-1.59-.29-3.18-.44-4.77-.12-1.41-.24-2.82-.37-4.23s-.28-3.13-.43-4.69c-.12-1.36-.23-2.71-.36-4.07-.14-1.64-.3-3.29-.44-4.93,0-.56-.1-1.12-.14-1.68a.18.18,0,0,1,.25-.2c.41.12.81.27,1.21.4a20.34,20.34,0,0,1,6.81,3.78,15.61,15.61,0,0,1,5.17,7.64A14.33,14.33,0,0,1,71.44,426.69Z" transform="translate(-15.14 -379.49)"/><path class="cls-2" d="M310.76,427.81c.05-.26-.23-.62,0-.81s.59,0,.89.08a26.67,26.67,0,0,1,6.3,2,16.18,16.18,0,0,1,4.88,3.3,12,12,0,0,1,2.15,3.07,6.34,6.34,0,0,1,.65,2.29,4.79,4.79,0,0,1-.31,2.12,6.2,6.2,0,0,1-.44.94c-.44.76-.91,1.51-1.36,2.27a4.14,4.14,0,0,1-2.82,2.05,27.2,27.2,0,0,0-2.84.82,46,46,0,0,1-4.73,1.17.25.25,0,0,1-.35-.22c-.06-.5-.11-1-.16-1.51-.13-1.22-.25-2.44-.38-3.66s-.27-2.55-.41-3.82-.25-2.39-.38-3.58c-.14-1.38-.29-2.76-.44-4.13C310.92,429.43,310.85,428.63,310.76,427.81Z" transform="translate(-15.14 -379.49)"/><path class="cls-2" d="M257.87,459.81a2.62,2.62,0,0,1-.4,0,.17.17,0,0,1-.14-.17c0-.1,0-.21.05-.31.67-3.83,1.45-7.64,2.23-11.46.7-3.42,1.39-6.84,2-10.28,0-.21,0-.55.29-.56s.2.33.26.52c1,3.4,1.88,6.83,2.77,10.26s1.8,6.91,2.78,10.35l.09.3c.12.46.08.53-.36.57s-1,.11-1.51.15l-4.71.39Z" transform="translate(-15.14 -379.49)"/><path class="cls-2" d="M104.05,455.82c-.76,0-1.53,0-2.3,0l-7.76,0h-.4c-.29,0-.36-.12-.3-.42.28-1.36.55-2.72.85-4.07.78-3.59,1.59-7.18,2.38-10.77.24-1.06.44-2.13.67-3.2a3.45,3.45,0,0,1,.12-.46.16.16,0,0,1,.12-.09s.12,0,.14,0a6,6,0,0,1,.26.58c.66,1.86,1.32,3.71,2,5.58,1.39,4.11,2.74,8.24,4.22,12.32A.55.55,0,0,1,104.05,455.82Z" transform="translate(-15.14 -379.49)"/></svg>