<svg xmlns="http://www.w3.org/2000/svg" width="338.563" height="343.882" viewBox="0 0 338.563 343.882">
  <path id="positive-vote" d="M334.932,147.319a24.631,24.631,0,0,0-15.254-10.5,24.772,24.772,0,0,0-16.521-35.71,24.832,24.832,0,0,0-1.283-25.234,24.611,24.611,0,0,0-15.254-10.5,24.8,24.8,0,0,0-35.647-32.207l-24.688,16.35A154.277,154.277,0,0,0,184.6,35.411,114.623,114.623,0,0,0,168.7,16.167l-10.214-9.9a22.348,22.348,0,0,0-34.188,28.385q.4.61.79,1.225a155.553,155.553,0,1,0,177.3,205.293,5.346,5.346,0,1,0-10.056-3.631,145.047,145.047,0,0,1-182.023,88.28l43.5-28.81.008-.005s0,0,.005-.005l36.156-23.943h0a14.585,14.585,0,0,0,4.109-20.21l-.477-.724,7.023-4.652A23.818,23.818,0,0,1,217.61,243.8a34.476,34.476,0,0,0,24.57-5.313l58.255-38.578a145.167,145.167,0,0,1-1.97,15.018,5.345,5.345,0,0,0,4.282,6.234,5.214,5.214,0,0,0,.981.092,5.348,5.348,0,0,0,5.25-4.374,156.386,156.386,0,0,0,2.555-24.318l16.416-10.872a24.8,24.8,0,0,0,6.984-34.372ZM215.9,56.392l-16.337,10.82-3.217-8.666a114.425,114.425,0,0,0-4.589-10.628A143.531,143.531,0,0,1,215.9,56.392ZM46.584,93.461A144.867,144.867,0,0,1,130.2,45.787a66.057,66.057,0,0,1,3.332,40.007l-13.037,56.321a14.555,14.555,0,0,0-18.662-2.175L64.9,164.393s0,0-.005,0a0,0,0,0,0,0,0L11.637,199.668c-.291-3.757-.443-7.543-.443-11.326a144.812,144.812,0,0,1,35.39-94.881ZM185.743,261.669a3.873,3.873,0,0,1-1.669,2.471h0L152.32,285.168l-58.939-87.9a5.347,5.347,0,0,0-8.881,5.956l58.9,87.849L98.069,321.1A145.3,145.3,0,0,1,13.036,211.363l53.322-35.2,6.137,9.156a5.348,5.348,0,0,0,8.884-5.956l-6.095-9.091,32.454-21.422a3.891,3.891,0,0,1,5.389,1.1l72.049,108.8a3.855,3.855,0,0,1,.567,2.917Zm142.336-97.848a14.011,14.011,0,0,1-6.037,8.954L303.275,185.2a.117.117,0,0,1-.018.01l-66.983,44.36a23.8,23.8,0,0,1-16.972,3.668,34.495,34.495,0,0,0-24.57,5.313l-7.023,4.652L128.7,154.1l15.254-65.892a76.825,76.825,0,0,0-5.625-50.431,5.242,5.242,0,0,0-.226-.475,75.634,75.634,0,0,0-4.893-8.556,11.655,11.655,0,0,1,17.83-14.8l10.214,9.9a104.473,104.473,0,0,1,25.071,38.423l5.562,14.983c.01.029.021.052.031.079s.029.071.042.1c.039.092.076.176.115.247a5.279,5.279,0,0,0,.367.661,5.344,5.344,0,0,0,7.409,1.506l57.029-37.764a14.107,14.107,0,0,1,15.579,23.523l-4.951,3.28a.008.008,0,0,0-.005,0L256.46,76.205a.4.4,0,0,1-.042.029c-.063.045-.123.087-.173.129a5.344,5.344,0,0,0,6.121,8.758l11.051-7.32a14.108,14.108,0,0,1,15.571,23.531l-16,10.6a5.346,5.346,0,1,0,5.9,8.915l2.477-1.64,8.569-5.675a14.108,14.108,0,0,1,15.579,23.526l-7.992,5.292c-.042.026-.084.055-.126.084l-7.881,5.218a5.347,5.347,0,1,0,5.9,8.918l2.477-1.64a0,0,0,0,1,0,0l8.569-5.672a14.1,14.1,0,0,1,21.611,14.569Zm0,0" transform="translate(-0.501 -0.001)" fill="#f2b151"/>
</svg>
